<?xml version="1.0" standalone="no"?>
<!DOCTYPE svg PUBLIC "-//W3C//DTD SVG 20010904//EN"
 "http://www.w3.org/TR/2001/REC-SVG-20010904/DTD/svg10.dtd">
<svg version="1.0" xmlns="http://www.w3.org/2000/svg"
 width="160.000000pt" height="160.000000pt" viewBox="0 0 160.000000 160.000000"
 preserveAspectRatio="xMidYMid meet">
<metadata>
Created by potrace 1.14, written by Peter Selinger 2001-2017
</metadata>
<g transform="translate(0.000000,160.000000) scale(0.100000,-0.100000)"
fill="#000000" stroke="none">
<path d="M250 1515 c-28 -74 -33 -386 -6 -413 3 -2 -3 -21 -13 -41 -37 -74
-98 -301 -86 -321 3 -5 1 -11 -4 -14 -5 -3 -7 -15 -4 -25 3 -14 -3 -24 -24
-35 -15 -8 -24 -15 -20 -16 5 0 17 5 28 10 16 9 19 7 19 -13 0 -18 -8 -28 -30
-37 -16 -7 -34 -18 -40 -25 -6 -8 5 -5 26 6 40 20 54 14 54 -24 0 -58 85 -175
182 -254 101 -82 359 -213 446 -226 47 -8 147 26 269 89 257 133 382 254 408
397 8 43 20 45 70 16 20 -12 38 -20 40 -17 3 3 -65 43 -93 54 -1 1 -5 11 -7
24 -3 16 0 20 10 16 8 -3 15 -1 15 3 0 5 -7 12 -16 15 -9 3 -14 12 -11 19 3 8
1 36 -4 63 -5 27 -12 61 -14 75 -9 47 -47 162 -65 197 -10 19 -17 44 -14 55
18 93 21 205 10 322 -11 113 -20 129 -66 118 -40 -9 -193 -88 -272 -140 l-73
-48 -165 1 -165 1 -70 48 c-82 56 -226 130 -272 140 -29 6 -34 4 -43 -20z"/>
<path d="M1507 659 c7 -7 15 -10 18 -7 3 3 -2 9 -12 12 -14 6 -15 5 -6 -5z"/>
</g>
</svg>
